# AST/ASF file generated using VICON BodyLanguage
# -----------------------------------------------
:version 1.10
:name VICON
:units
  mass 1.0
  length 0.45
  angle deg
:documentation
   .ast/.asf automatically generated from VICON data using
   VICON BodyBuilder and BodyLanguage model FoxedUp or BRILLIANT.MOD
:root
   order TX TY TZ RX RY RZ
   axis XYZ
   position 0 0 0  
   orientation 0 0 0 
:bonedata
  begin
     id 1 
     name lhipjoint
     direction 0.722297 -0.617336 0.311742 
     length 2.6635 
     axis 0 0 0  XYZ
  end
  begin
     id 2 
     name lfemur
     direction 0.34202 -0.939693 0  
     length 7.39349  
     axis 0 0 20  XYZ
    dof rx ry rz
    limits (-160.0 20.0)
           (-70.0 70.0)
           (-60.0 70.0)
  end
  begin
     id 3 
     name ltibia
     direction 0.34202 -0.939693 0   
     length 7.36294   
     axis 0 0 20   XYZ
    dof rx
    limits (-10.0 170.0)
  end
  begin
     id 4 
     name lfoot
     direction 0.104879 -0.288152 0.951824   
     length 2.16981   
     axis -90 7.62852e-016 20   XYZ
    dof rx rz
    limits (-45.0 90.0)
           (-70.0 20.0)
  end
  begin
     id 5 
     name ltoes
     direction 1.53586e-011 -4.21895e-011 1   
     length 1.08218   
     axis -90 7.62852e-016 20   XYZ
    dof rx
    limits (-90.0 20.0)
  end
  begin
     id 6 
     name rhipjoint
     direction -0.75102 -0.589393 0.297631   
     length 2.78977  
     axis 0 0 0  XYZ 
  end
  begin
     id 7 
     name rfemur
     direction -0.34202 -0.939693 0   
     length 7.46076   
     axis 0 0 -20   XYZ
    dof rx ry rz
    limits (-160.0 20.0)
           (-70.0 70.0)
           (-70.0 60.0)
  end
  begin
     id 8 
     name rtibia
     direction -0.34202 -0.939693 0   
     length 7.31726   
     axis 0 0 -20   XYZ
    dof rx
    limits (-10.0 170.0)
 end
 begin
     id 9 
     name rfoot
     direction -0.107991 -0.296704 0.948844   
     length 2.09388  
     axis -90 -7.62852e-016 -20   XYZ
    dof rx rz
    limits (-45.0 90.0)
           (-20.0 70.0)
  end
  begin
     id 10 
     name rtoes
     direction -1.53559e-011 -4.21911e-011 1   
     length 1.04433   
     axis -90 -7.62852e-016 -20   XYZ
    dof rx
    limits (-90.0 20.0)
  end
  begin
     id 11 
     name lowerback
     direction 0.0165164 0.98272 0.184358   
     length 1.71896   
     axis 0 0 0   XYZ
    dof rx ry rz
    limits (-20.0 45.0)
           (-30.0 30.0)
           (-30.0 30.0)
  end
  begin
     id 12 
     name upperback
     direction -0.00887249 0.992297 0.123566   
     length 1.71504   
     axis 0 0 0   XYZ
    dof rx ry rz
    limits (-20.0 45.0)
           (-30.0 30.0)
           (-30.0 30.0)
  end
  begin
     id 13 
     name thorax
     direction -0.0157026 0.998908 0.0440032   
     length 1.77022   
     axis 0 0 0   XYZ
    dof rx ry rz
    limits (-20.0 45.0)
           (-30.0 30.0)
           (-30.0 30.0)
  end
  begin
     id 14 
     name lowerneck
     direction -0.0238856 0.998137 0.0561411   
     length 1.89341   
     axis 0 0 0   XYZ
    dof rx ry rz
    limits (-20.0 45.0)
           (-30.0 30.0)
           (-30.0 30.0)
  end
  begin
     id 15 
     name upperneck
     direction 0.0276574 0.952253 -0.304056   
     length 1.86999   
     axis 0 0 0   XYZ
    dof rx ry rz
    limits (-20.0 45.0)
           (-30.0 30.0)
           (-30.0 30.0)
  end
  begin
     id 16
     name head
     direction 0.00800083 0.994258 -0.106712  
     length 1.91492  
     axis 0 0 0   XYZ
    dof rx ry rz
    limits (-20.0 45.0)
           (-30.0 30.0)
           (-30.0 30.0)
  end
  begin
     id 17 
     name lclavicle
     direction 0.97203 0.225407 0.06595  
     length 3.34889  
     axis 0 0 0   XYZ
    dof ry rz
    limits (-20.0 10.0)
           (0.0 20.0)
  end
  begin
     id 18 
     name lhumerus
     direction 1 -4.48973e-011 2.20267e-027   
     length 4.85645   
     axis 180 -30 -90   XYZ
    dof rx ry rz
    limits (-60.0 90.0)
           (-90.0 90.0)
           (-90.0 90.0)
  end
  begin
     id 19
     name lradius
     direction 1 -4.4897e-011 4.60472e-027   
     length 2.79874   
     axis 180 -30 -90   XYZ
    dof rx
    limits (-10.0 170.0)
  end
  begin
     id 20
     name lwrist
     direction 1 -4.48952e-011 1.14928e-026   
     length 1.39937   
     axis -6.29373e-015 90 90   XYZ
    dof ry
    limits (-180.0 0.0)
 end
  begin
     id 21 
     name lhand
     direction 1 -4.48967e-011 2.29886e-026   
     length 0.573398   
     axis -1.46689e-014 90 90   XYZ
    dof rx rz
    limits (-90.0 90.0)
           (-45.0 45.0)
  end
  begin
     id 22 
     name lfingers
     direction 1 -4.48955e-011 4.59726e-026   
     length 0.462289   
     axis -2.93383e-014 90 90   XYZ
    dof rx
    limits (0.0 90.0)
  end
  begin
     id 23
     name lthumb
     direction 0.707107 -6.34866e-011 0.707107   
     length 0.663757   
     axis -90 45 5.69224e-014   XYZ
    dof rx rz
    limits (-45.0 45.0)
           (-45.0 45.0)
  end
  begin
     id 24 
     name rclavicle
     direction -0.981571 0.157346 0.108443   
     length 3.35257  
     axis 0 0 0   XYZ 
    dof ry rz
    limits (-10.0 20.0)
           (-20.0 0.0)
  end
  begin
     id 25 
     name rhumerus
     direction -1 -4.48967e-011 8.58308e-029  
     length 4.67018   
     axis 180 30 90   XYZ
    dof rx ry rz
    limits (-90.0 60.0)
           (-90.0 90.0)
           (-90.0 90.0)
  end
  begin
     id 26 
     name rradius
     direction -1 -4.48958e-011 4.52548e-027   
     length 2.65534   
     axis 180 30 90   XYZ
    dof rx
    limits (-10.0 170.0)
  end
  begin
     id 27 
     name rwrist
     direction -1 -4.48977e-011 1.14952e-026   
     length 1.32767   
     axis -6.29373e-015 -90 -90   XYZ
    dof ry
    limits (-180.0 0.0)
  end
  begin
     id 28
     name rhand
     direction -1 -4.48924e-011 2.29804e-026   
     length 0.594069   
     axis -1.46689e-014 -90 -90   XYZ
    dof rx rz
    limits (-90.0 90.0)
           (-45.0 45.0)
  end
  begin
     id 29
     name rfingers
     direction -1 -4.48998e-011 4.59888e-026   
     length 0.478954   
     axis -2.93383e-014 -90 -90   XYZ
    dof rx
    limits (0.0 90.0)
  end
  begin
     id 30
     name rthumb
     direction -0.707107 -6.34933e-011 0.707107   
     length 0.687685   
     axis -90 -45 -5.69224e-014   XYZ
    dof rx rz
    limits (-45.0 45.0)
           (-45.0 45.0)
  end
:hierarchy
  begin
    root lhipjoint rhipjoint lowerback
    lhipjoint lfemur
    lfemur ltibia
    ltibia lfoot
    lfoot ltoes
    rhipjoint rfemur
    rfemur rtibia
    rtibia rfoot
    rfoot rtoes
    lowerback upperback
    upperback thorax
    thorax lowerneck lclavicle rclavicle
    lowerneck upperneck
    upperneck head
    lclavicle lhumerus
    lhumerus lradius
    lradius lwrist
    lwrist lhand lthumb
    lhand lfingers
    rclavicle rhumerus
    rhumerus rradius
    rradius rwrist
    rwrist rhand rthumb
    rhand rfingers
  end

#!OML:ASF E:\pregnant2\Project 1\Capture day 1\Session 1\pregnant2.ASF
:FULLY-SPECIFIED
:DEGREES
712
root 6.63287 22.7048 -4.30167 -149.059 5.48725 176.643
lowerback -9.7547 -0.21596 -1.37635
upperback -11.6712 1.51396 -1.82832
thorax -6.80421 1.57116 -1.19437
lowerneck -12.4693 -6.36052 -2.67838
upperneck 47.1764 2.67165 -5.64869
head 21.3653 2.42541 -0.923721
rclavicle -1.54849e-014 2.01961e-014
rhumerus -51.7847 18.9459 -89.4612
rradius 58.8127
rwrist 17.531
rhand -9.1499 -11.164
rfingers 7.12502
rthumb 16.8021 -40.457
lclavicle -1.54849e-014 2.01961e-014
lhumerus -49.1395 4.2392 77.6058
lradius 37.1116
lwrist -1.54614
lhand -7.92865 26.9099
lfingers 7.12502
lthumb 17.9775 56.099
rfemur -39.0326 7.66245 24.009
rtibia 34.8214
rfoot -24.9539 -17.6817
rtoes 4.25841
lfemur -91.4547 -1.61376 -28.3072
ltibia 65.6667
lfoot -12.3223 7.96462
ltoes -19.8052
713
root 6.62784 22.7006 -4.39334 -149.101 5.49779 176.721
lowerback -9.81006 -0.231785 -1.25368
upperback -11.7019 1.49741 -1.7834
thorax -6.80666 1.55904 -1.21601
lowerneck -12.3191 -6.29921 -2.59739
upperneck 47.1905 2.85044 -5.74978
head 21.3421 2.51499 -0.949363
rclavicle -2.01291e-014 6.33626e-016
rhumerus -51.7366 19.1631 -89.7009
rradius 58.5875
rwrist 18.1248
rhand -8.88249 -10.909
rfingers 7.12502
rthumb 17.0596 -40.1799
lclavicle -2.01291e-014 6.33626e-016
lhumerus -49.2703 4.23486 77.7432
lradius 37.1756
lwrist -1.43351
lhand -7.84849 27.121
lfingers 7.12502
lthumb 18.0546 56.303
rfemur -38.5833 7.22057 24.2468
rtibia 34.7953
rfoot -25.0503 -17.2415
rtoes 3.69948
lfemur -91.1396 -1.72885 -27.9496
ltibia 64.4408
lfoot -11.7497 7.46168
ltoes -19.8182
714
root 6.62297 22.6999 -4.47192 -149.103 5.62189 176.768
lowerback -9.79063 -0.182059 -1.18013
upperback -11.703 1.55608 -1.81303
thorax -6.8162 1.5801 -1.28653
lowerneck -12.2823 -6.25338 -2.35483
upperneck 47.1942 2.98976 -5.96537
head 21.3467 2.59773 -1.07561
rclavicle 3.58502e-015 -1.39165e-014
rhumerus -51.5503 19.2325 -89.8865
rradius 58.3804
rwrist 18.6881
rhand -8.74247 -10.6304
rfingers 7.12502
rthumb 17.1943 -39.8896
lclavicle 3.58502e-015 -1.39165e-014
lhumerus -49.2066 4.22443 77.8316
lradius 37.1457
lwrist -1.50377
lhand -7.83029 27.0379
lfingers 7.12502
lthumb 18.0721 56.2183
rfemur -38.266 7.29877 24.213
rtibia 34.7387
rfoot -25.0804 -17.2248
rtoes 3.11107
lfemur -90.8703 -1.80797 -27.5985
ltibia 63.3345
lfoot -11.2653 7.00189
ltoes -19.7913
715
root 6.61845 22.6963 -4.54631 -149.026 5.78107 176.783
lowerback -9.73042 -0.134669 -1.14987
upperback -11.7027 1.60941 -1.86954
thorax -6.84683 1.59965 -1.36265
lowerneck -12.3557 -6.33722 -2.86089
upperneck 47.2565 2.61471 -5.276
head 21.3755 2.42123 -0.704551
rclavicle 1.70287e-015 -3.24267e-015
rhumerus -51.2305 19.2952 -90.0561
rradius 58.1514
rwrist 19.2534
rhand -8.86302 -10.269
rfingers 7.12502
rthumb 17.0783 -39.5384
lclavicle 1.70287e-015 -3.24267e-015
lhumerus -49.0953 4.23028 77.8454
lradius 37.1203
lwrist -1.64904
lhand -7.8242 26.5485
lfingers 7.12502
lthumb 18.078 55.7284
rfemur -38.119 7.09144 24.2406
rtibia 34.7298
rfoot -24.9973 -16.932
rtoes 2.18114
lfemur -90.7375 -1.88423 -27.2787
ltibia 62.3218
lfoot -10.7029 6.49809
ltoes -19.2353
716
root 6.60237 22.686 -4.63895 -148.861 5.66879 177.054
lowerback -10.054 -0.0948336 -0.606395
upperback -11.6883 1.6524 -1.84635
thorax -6.64145 1.58567 -1.6286
lowerneck -12.4819 -6.32923 -2.83462
upperneck 47.2967 2.57192 -5.20322
head 21.441 2.41038 -0.682427
rclavicle 6.92174e-015 -1.78906e-015
rhumerus -51.0185 19.356 -90.2315
rradius 58.0011
rwrist 19.6352
rhand -8.7786 -10.1293
rfingers 7.12502
rthumb 17.1595 -39.3916
lclavicle 6.92174e-015 -1.78906e-015
lhumerus -48.9926 4.21515 77.9406
lradius 36.9961
lwrist -1.63493
lhand -7.82106 26.2525
lfingers 7.12502
lthumb 18.081 55.4321
rfemur -37.8435 6.74584 24.5907
rtibia 34.7022
rfoot -25.1612 -16.4649
rtoes 1.91596
lfemur -90.6437 -2.10034 -26.7222
ltibia 61.5331
lfoot -10.1728 6.17374
ltoes -19.6668
717
root 6.60353 22.6833 -4.72038 -148.987 5.89633 176.978
lowerback -9.8357 -0.0821237 -0.83662
upperback -11.6534 1.65444 -1.86878
thorax -6.7271 1.59287 -1.52843
lowerneck -12.5657 -6.21809 -2.44797
upperneck 47.1872 2.77615 -5.59536
head 21.4005 2.50253 -0.920055
rclavicle -2.42657e-015 6.60959e-015
rhumerus -50.7839 19.4529 -90.4219
rradius 57.8723
rwrist 19.8118
rhand -8.5535 -10.0564
rfingers 7.12502
rthumb 17.3762 -39.2997
lclavicle -2.42657e-015 6.60959e-015
lhumerus -48.9048 4.16466 78.1021
lradius 37.111
lwrist -1.55612
lhand -7.64546 26.829
lfingers 7.12502
lthumb 18.2499 55.9929
rfemur -37.4513 6.93381 24.3945
rtibia 34.7097
rfoot -25.1351 -16.5358
rtoes 1.06931
lfemur -90.2308 -2.13479 -26.5563
ltibia 60.7741
lfoot -9.67106 5.83469
ltoes -19.4066
718
root 6.59467 22.6775 -4.80861 -149.121 6.0991 176.98
lowerback -9.62723 -0.0364951 -0.848675
upperback -11.6668 1.70041 -1.899
thorax -6.85666 1.61012 -1.55907
lowerneck -12.5603 -6.09779 -2.00698
upperneck 47.227 3.14879 -6.04151
head 21.4675 2.69637 -1.15255
rclavicle -2.0349e-014 1.38155e-014
rhumerus -50.7329 19.5566 -90.6691
rradius 57.8128
rwrist 19.6992
rhand -8.38144 -10.0885
rfingers 7.12502
rthumb 17.5418 -39.3171
lclavicle -2.0349e-014 1.38155e-014
lhumerus -48.9425 4.21332 78.1677
lradius 37.1903
lwrist -1.68514
lhand -7.44804 27.0183
lfingers 7.12502
lthumb 18.4399 56.1643
rfemur -36.9606 6.86779 24.3227
rtibia 34.7116
rfoot -25.3157 -16.1595
rtoes 0.986167
lfemur -89.8301 -2.20617 -26.35
ltibia 60.209
lfoot -9.23602 5.6026
ltoes -19.4937
719
root 6.59109 22.6754 -4.90876 -148.914 6.21292 176.904
lowerback -10.0153 -0.038262 -0.893959
upperback -11.6607 1.72578 -1.97326
thorax -6.63246 1.6332 -1.59809
lowerneck -12.5088 -6.11272 -2.16223
upperneck 47.194 3.01631 -5.81691
head 21.4067 2.63365 -1.03566
rclavicle 1.85957e-014 -3.15571e-015
rhumerus -50.4738 19.424 -90.7948
rradius 57.7284
rwrist 19.9266
rhand -8.49335 -9.87242
rfingers 7.12502
rthumb 17.4341 -39.1106
lclavicle 1.85957e-014 -3.15571e-015
lhumerus -48.8891 4.069 78.2666
lradius 37.2329
lwrist -1.6548
lhand -7.44999 26.897
lfingers 7.12502
lthumb 18.438 56.0432
rfemur -36.8212 6.74753 24.1944
rtibia 34.725
rfoot -25.3118 -16.0151
rtoes 0.0168266
lfemur -89.7141 -2.36267 -26.2951
ltibia 59.7269
lfoot -8.70703 5.29624
ltoes -19.4986
720
root 6.58343 22.671 -4.99983 -148.924 6.41575 176.844
lowerback -9.91607 -0.00269103 -0.954585
upperback -11.7379 1.78479 -2.04676
thorax -6.77151 1.66972 -1.64704
lowerneck -12.4264 -6.10234 -2.13176
upperneck 47.1836 2.90698 -5.63764
head 21.3538 2.61941 -0.969014
rclavicle 6.32073e-015 -2.13694e-015
rhumerus -50.5046 19.2351 -90.9634
rradius 57.8138
rwrist 19.9563
rhand -8.37869 -9.84572
rfingers 7.12502
rthumb 17.5444 -39.0741
lclavicle 6.32073e-015 -2.13694e-015
lhumerus -48.9443 3.90848 78.3678
lradius 37.2004
lwrist -1.64005
lhand -7.4108 26.5322
lfingers 7.12502
lthumb 18.4757 55.6748
rfemur -36.4949 6.7046 24.0442
rtibia 34.7541
rfoot -25.2902 -15.8535
rtoes -0.721938
lfemur -89.4157 -2.45628 -26.2642
ltibia 59.384
lfoot -8.22303 5.07482
ltoes -19.553
721
root 6.57186 22.6664 -5.10714 -148.715 6.46002 176.99
lowerback -10.2634 0.0101692 -0.712521
upperback -11.7711 1.82012 -2.03065
thorax -6.61067 1.68104 -1.75364
lowerneck -12.6597 -6.08391 -2.18369
upperneck 47.2192 2.85235 -5.50991
head 21.4483 2.58682 -0.908704
rclavicle -1.26787e-014 -8.34896e-015
rhumerus -50.3886 19.3603 -91.1882
rradius 57.6928
rwrist 19.6873
rhand -8.42438 -9.78579
rfingers 7.12502
rthumb 17.5005 -39.0181
lclavicle -1.26787e-014 -8.34896e-015
lhumerus -48.949 3.88898 78.4574
lradius 37.1854
lwrist -1.67937
lhand -7.31897 26.5942
lfingers 7.12502
lthumb 18.564 55.7284
rfemur -36.2835 6.48787 24.1681
rtibia 34.7748
rfoot -25.3041 -15.5991
rtoes -1.46729
lfemur -89.3467 -2.58836 -26.0457
ltibia 59.1958
lfoot -7.71964 4.88364
ltoes -19.3184
722
root 6.56168 22.6583 -5.20378 -148.644 6.64074 177.062
lowerback -10.265 0.0451319 -0.652672
upperback -11.8123 1.86985 -2.03707
thorax -6.6531 1.70393 -1.79378
lowerneck -12.7442 -5.90298 -1.62369
upperneck 47.134 3.27138 -6.09885
head 21.4551 2.78365 -1.23331
rclavicle -2.3997e-014 1.18774e-014
rhumerus -50.3079 19.3976 -91.403
rradius 57.679
rwrist 19.2599
rhand -8.22407 -9.9453
rfingers 7.12502
rthumb 17.6932 -39.1603
lclavicle -2.3997e-014 1.18774e-014
lhumerus -48.9319 3.83608 78.579
lradius 37.2855
lwrist -1.52098
lhand -7.16092 26.7123
lfingers 7.12502
lthumb 18.716 55.8319
rfemur -36.0219 6.53543 24.1036
rtibia 34.8152
rfoot -25.4964 -15.4179
rtoes -2.15051
lfemur -89.1211 -2.64522 -25.9778
ltibia 59.0517
lfoot -7.08878 4.73451
ltoes -19.1527
723
root 6.5503 22.6502 -5.29678 -148.52 6.77883 177.215
lowerback -10.2264 0.107217 -0.475937
upperback -11.8711 1.95061 -2.04967
thorax -6.73408 1.73367 -1.90684
lowerneck -12.9436 -5.87609 -1.53342
upperneck 47.1831 3.26819 -6.08181
head 21.5555 2.79209 -1.24484
rclavicle 5.55665e-015 -1.93815e-015
rhumerus -50.2008 19.3032 -91.548
rradius 57.7002
rwrist 19.0845
rhand -8.21779 -10.0056
rfingers 7.12502
rthumb 17.6993 -39.2201
lclavicle 5.55665e-015 -1.93815e-015
lhumerus -48.8965 3.75418 78.6701
lradius 37.2741
lwrist -1.60727
lhand -7.05135 26.7163
lfingers 7.12502
lthumb 18.8214 55.8257
rfemur -35.8136 6.62144 24.1222
rtibia 34.8239
rfoot -25.5388 -15.2249
rtoes -2.83616
lfemur -89.0045 -2.69098 -25.8359
ltibia 59.0055
lfoot -6.35793 4.62659
ltoes -18.8059
724
root 6.54004 22.6531 -5.39895 -148.322 7.02222 177.12
lowerback -10.3127 0.11673 -0.599505
upperback -12.0124 2.00823 -2.11434
thorax -6.84291 1.78664 -1.90915
lowerneck -13.0172 -5.89802 -1.61306
upperneck 47.2267 3.13669 -5.88235
head 21.5948 2.74522 -1.15408
rclavicle 2.16924e-014 1.63997e-015
rhumerus -50.2529 19.1996 -91.7273
rradius 57.7093
rwrist 18.8136
rhand -8.28218 -10.0078
rfingers 7.12502
rthumb 17.6373 -39.2278
lclavicle 2.16924e-014 1.63997e-015
lhumerus -49.0245 3.64622 78.7564
lradius 37.3067
lwrist -1.6682
lhand -6.93688 26.715
lfingers 7.12502
lthumb 18.9315 55.8137
rfemur -35.7281 6.6721 23.8288
rtibia 34.8694
rfoot -25.5435 -14.9908
rtoes -3.51463
lfemur -88.8281 -2.79025 -26.0672
ltibia 58.9274
lfoot -5.64471 4.47508
ltoes -18.1328
725
root 6.52048 22.6505 -5.5008 -148.217 6.99684 177.278
lowerback -10.4284 0.179695 -0.213786
upperback -11.9704 2.06506 -2.14374
thorax -6.72114 1.78141 -2.14576
lowerneck -13.1067 -5.73388 -1.29774
upperneck 47.1405 3.37055 -6.06938
head 21.5762 2.86219 -1.26311
rclavicle -1.49089e-014 4.57205e-015
rhumerus -50.016 19.0847 -91.8059
rradius 57.7055
rwrist 18.5363
rhand -8.31503 -10.0622
rfingers 7.12502
rthumb 17.6057 -39.2851
lclavicle -1.49089e-014 4.57205e-015
lhumerus -48.9211 3.64761 78.8082
lradius 37.372
lwrist -1.78946
lhand -6.8028 26.6862
lfingers 7.12502
lthumb 19.0605 55.7722
rfemur -35.3922 6.40831 23.9804
rtibia 34.8421
rfoot -25.4386 -14.5165
rtoes -3.7687
lfemur -88.6217 -2.96493 -25.9938
ltibia 59.041
lfoot -4.61937 3.94982
ltoes -17.5312
